<svg xmlns="http://www.w3.org/2000/svg" version="1.1" xmlns:xlink="http://www.w3.org/1999/xlink" xmlns:svgjs="http://svgjs.dev/svgjs" vector-effect="non-scaling-stroke" width="100%" height="auto">
    <g mask="url(&quot;#SvgjsMask1033&quot;)" fill="none">
        <path d="M58.46 0C81.82 10.62 75.54 22.71 95 43.18C120.69 70.21 148.77 65.75 148.77 95C148.77 134.84 125.73 142.79 95 181.36C87.88 190.29 73.08 186.2 73.08 190C73.08 193.68 83.69 195.36 95 196.33C142.15 200.36 144.01 202.71 190 200C197.7 199.55 199.28 197.17 202.39 190C222.04 144.67 232.84 143.21 235.52 95C238.13 48.21 198.73 27.33 212.97 0C223.47 -20.17 248.99 0 285 0C332.5 0 332.5 0 380 0C427.5 0 427.5 0 475 0C522.5 0 522.5 0 570 0C617.5 0 617.5 0 665 0C712.5 0 712.5 0 760 0C807.5 0 807.5 0 855 0C882.71 0 889.17 -12.5 910.42 0C936.67 15.44 933.34 55.88 950 55.88C964.72 55.88 951.45 12.77 973.17 0C998.95 -15.17 1009.09 0 1045 0C1092.5 0 1092.5 0 1140 0C1187.5 0 1187.5 0 1235 0C1282.5 0 1282.5 0 1330 0C1377.5 0 1377.5 0 1425 0C1472.5 0 1496.25 -23.75 1520 0C1543.75 23.75 1520 47.5 1520 95C1520 142.5 1520 142.5 1520 190C1520 229.36 1524.64 230.84 1520 268.71C1518.82 278.34 1508.37 275.96 1508.37 285C1508.37 301.92 1517.75 302.25 1520 320.63C1523.56 349.75 1533.97 364.29 1520 380C1507.58 393.97 1492.92 384.03 1467.22 380C1445.42 376.58 1443.88 365.1 1425 365.1C1417.1 365.1 1422.35 378.64 1413.66 380C1374.85 386.09 1371.83 380 1330 380C1282.5 380 1282.5 380 1235 380C1187.5 380 1187.5 380 1140 380C1092.5 380 1092.5 380 1045 380C997.5 380 997.5 380 950 380C902.5 380 902.5 380 855 380C807.5 380 807.5 380 760 380C712.5 380 712.5 380 665 380C617.5 380 617.5 380 570 380C536.07 380 502.14 394.05 502.14 380C502.14 360.12 529.62 334.47 570 312.14C611.05 289.44 616.98 297.56 665 289.94C702.48 283.99 741 288.86 741 285C741 281.11 703.19 276.12 665 274.44C617.69 272.37 617.38 279.27 570 277.5C522.38 275.72 522.63 270.41 475 267.33C427.63 264.27 423.46 258.18 380 265.21C368.87 267.01 371.33 274.18 365.82 285C342.1 331.58 351.5 344.78 321.54 380C311.09 392.28 303.27 380 285 380C237.5 380 237.5 380 190 380C142.5 380 142.5 380 95 380C47.5 380 23.75 403.75 0 380C-23.75 356.25 0 332.5 0 285C0 237.5 0 237.5 0 190C0 142.5 0 142.5 0 95C0 47.5 -18.09 29.41 0 0C11.14 -18.09 34.32 -10.97 58.46 0" stroke="rgba(0, 0, 0, .1)" stroke-width="2"></path>
        <path d="M1330 56.41C1312.77 57.22 1310.4 77.7 1310.4 95C1310.4 105.23 1317.92 111.05 1330 111.47C1375.22 113.05 1378.15 106.73 1425 99.01C1428.1 98.5 1429.91 97.18 1429.91 95C1429.91 92.49 1428.37 90.92 1425 89.62C1378.42 71.63 1370.07 54.53 1330 56.41" stroke="rgba(0, 0, 0, .1)" stroke-width="2"></path>
        <path d="M1140 165.7C1119.41 165.7 1098.2 178.34 1098.2 190C1098.2 201.37 1119.36 211.77 1140 211.77C1158.92 211.77 1177.32 201.34 1177.32 190C1177.32 178.31 1158.97 165.7 1140 165.7" stroke="rgba(0, 0, 0, .1)" stroke-width="2"></path>
        <path d="M855 228.59C807.79 233.25 764.75 262.49 764.75 285C764.75 305.02 808.89 308.98 855 313.65C901.51 318.36 905.42 314.93 950 303.75C962.55 300.6 969.26 294.31 969.26 285C969.26 275.8 961.76 272.54 950 266.73C904.63 244.33 900.41 224.11 855 228.59" stroke="rgba(0, 0, 0, .1)" stroke-width="2"></path>
        <path d="M1235 229.39C1208.5 234.03 1197.62 258.85 1197.62 285C1197.62 305.98 1211.26 319.33 1235 323.64C1277.45 331.35 1285.34 322.84 1330 309.05C1347.92 303.52 1360.16 296.89 1360.16 285C1360.16 273.28 1347.19 269.47 1330 261.83C1284.61 241.66 1274.69 222.44 1235 229.39" stroke="rgba(0, 0, 0, .1)" stroke-width="2"></path>
        <path d="M74.35 95C74.35 89.58 85.49 86.36 95 86.36C100.29 86.36 103.96 90.12 103.96 95C103.96 101.64 100.96 109.39 95 109.39C86.15 109.39 74.35 101.09 74.35 95" stroke="rgba(0, 0, 0, .1)" stroke-width="2"></path>
        <path d="M21.92 0C21.92 14.86 5.79 43.18 0 43.18C-5.17 43.18 -7.27 14.32 0 0C3.69 -7.27 21.92 -6.73 21.92 0" stroke="rgba(0, 0, 0, .1)" stroke-width="2"></path>
        <path d="M665 47.5C640.63 53.84 631.07 72 631.07 95C631.07 115.54 642.62 131.9 665 134.58C707.08 139.61 714.59 126.42 760 110.41C770.72 106.63 777.27 104.31 777.27 95C777.27 79.84 775.83 68.17 760 61.47C719.7 44.42 705.09 37.07 665 47.5" stroke="rgba(0, 0, 0, .1)" stroke-width="2"></path>
        <path d="M1187.5 380C1187.5 375.87 1210.91 370.81 1235 363.9C1282.16 350.37 1286.44 334.21 1330 339.11C1358.05 342.26 1378.21 368.4 1378.21 380C1378.21 388.85 1354.11 380 1330 380C1282.5 380 1282.5 380 1235 380C1211.25 380 1187.5 383.92 1187.5 380" stroke="rgba(0, 0, 0, .1)" stroke-width="2"></path>
        <path d="M285 41.02C270.05 24.47 265.16 14.29 265.16 0C265.16 -6.22 275.08 0 285 0C332.5 0 332.5 0 380 0C399 0 402.25 -8.48 418 0C449.75 17.09 446.33 25.77 475 51.15C499.98 73.27 500.57 72.61 525.29 95C548.07 115.64 548.3 115.45 570 137.22C595.66 162.95 620 168.01 620 190C620 206.9 596.85 210.91 570 215C524.35 221.95 521.32 219.59 475 212.09C444.13 207.09 439.82 208.25 415.63 190C392.32 172.42 397.17 165.65 380 140.43C364.84 118.15 369.37 114.26 350.97 95C321.87 64.55 312.96 71.97 285 41.02" stroke="rgba(0, 0, 0, .1)" stroke-width="2"></path>
        <path d="M570 42.59C551.68 42.59 533.68 12.91 533.68 0C533.68 -8.38 551.84 0 570 0C588.71 0 607.42 -8.47 607.42 0C607.42 12.83 588.55 42.59 570 42.59" stroke="rgba(0, 0, 0, .1)" stroke-width="2"></path>
        <path d="M849.24 95C849.24 92.52 852.31 90 855 90C857.3 90 859.22 92.51 859.22 95C859.22 97.45 857.3 99.87 855 99.87C852.31 99.87 849.24 97.45 849.24 95" stroke="rgba(0, 0, 0, .1)" stroke-width="2"></path>
        <path d="M1511.81 95C1511.81 87.2 1517.82 79.68 1520 79.68C1521.92 79.68 1520 87.34 1520 95C1520 104.13 1521.95 113.27 1520 113.27C1517.86 113.27 1511.81 103.99 1511.81 95" stroke="rgba(0, 0, 0, .1)" stroke-width="2"></path>
        <path d="M736.25 190C736.25 183.27 749.23 174.59 760 174.59C767.73 174.59 773.26 182.95 773.26 190C773.26 195.84 767.29 200.36 760 200.36C748.78 200.36 736.25 196.16 736.25 190" stroke="rgba(0, 0, 0, .1)" stroke-width="2"></path>
        <path d="M925.3 190C925.3 179.96 937.6 167.95 950 167.95C962.55 167.95 975.2 179.97 975.2 190C975.2 198.91 962.56 205.83 950 205.83C937.61 205.83 925.3 198.9 925.3 190" stroke="rgba(0, 0, 0, .1)" stroke-width="2"></path>
        <path d="M1304.67 190C1304.67 182.64 1315.78 177.65 1330 174.8C1375.94 165.61 1379.45 160.93 1425 165.92C1448.88 168.53 1468.85 172.38 1468.85 190C1468.85 218.62 1454.57 255.44 1425 258.4C1385.14 262.39 1377.61 230.96 1330 203.9C1317.44 196.76 1304.67 197.19 1304.67 190" stroke="rgba(0, 0, 0, .1)" stroke-width="2"></path>
        <path d="M179.44 285C179.44 283.88 185 285.18 190 283.33C237.78 265.62 247.4 245.28 285 245.88C299.86 246.12 294.93 266.22 294.93 285C294.93 293.7 293.56 300.6 285 300.83C241.09 302.04 237.37 294.98 190 287.88C184.59 287.07 179.44 286.15 179.44 285" stroke="rgba(0, 0, 0, .1)" stroke-width="2"></path>
        <path d="M1033.45 285C1033.45 274.75 1036.44 266 1045 266C1061.65 266 1083.86 272.26 1083.86 285C1083.86 301.19 1059.5 323.86 1045 323.86C1034.3 323.86 1033.45 303.68 1033.45 285" stroke="rgba(0, 0, 0, .1)" stroke-width="2"></path>
        <path d="M0 352.86C7.66 352.86 26.31 372 26.31 380C26.31 385.57 6.48 386.68 0 380C-6.68 373.11 -5.5 352.86 0 352.86" stroke="rgba(0, 0, 0, .1)" stroke-width="2"></path>
        <path d="M627.33 380C627.33 372.11 645.47 351.62 665 351.62C687.55 351.62 711.49 372.34 711.49 380C711.49 386.53 688.24 380 665 380C646.16 380 627.33 386.3 627.33 380" stroke="rgba(0, 0, 0, .1)" stroke-width="2"></path>
        <path d="M888.53 380C888.53 376.52 919.56 366.25 950 366.25C972.07 366.25 993.54 376.48 993.54 380C993.54 383.36 971.77 380 950 380C919.26 380 888.53 383.4 888.53 380" stroke="rgba(0, 0, 0, .1)" stroke-width="2"></path>
        <path d="M1294.38 380C1294.38 377.24 1313.31 369.18 1330 369.18C1337.5 369.18 1342.76 376.93 1342.76 380C1342.76 382.34 1336.38 380 1330 380C1312.19 380 1294.38 382.65 1294.38 380" stroke="rgba(0, 0, 0, .1)" stroke-width="2"></path>
    </g>
    <defs>
        <mask id="SvgjsMask1033">
            <rect width="1520" height="378" fill="#ffffff"></rect>
        </mask>
    </defs>
</svg>