<svg xmlns="http://www.w3.org/2000/svg" version="1.1" xmlns:xlink="http://www.w3.org/1999/xlink" xmlns:svgjs="http://svgjs.dev/svgjs" width="100%" height="auto" viewBox="0 0 1520 78">
    <g mask="url(&quot;#SvgjsMask1028&quot;)" fill="none" vector-effect="non-scaling-stroke">
        <path d="M80 18.15C78.32 18.15 76.36 18.87 76.36 20C76.36 21.3 78.42 23 80 23C81.19 23 81.9 21.39 81.9 20C81.9 18.96 81.09 18.15 80 18.15" stroke="rgba(36, 36, 36, 0.7)" stroke-width="2"></path>
        <path d="M240 18.25C238.79 18.25 237.85 18.81 237.85 20C237.85 23.02 238.45 26.67 240 26.67C241.78 26.67 244.52 22.63 244.52 20C244.52 18.42 242.12 18.25 240 18.25" stroke="rgba(36, 36, 36, 0.7)" stroke-width="2"></path>
        <path d="M400 19.72C399.8 19.77 399.71 19.86 399.71 20C399.71 20.14 399.81 20.23 400 20.27C409.95 22.47 410.34 24.58 420 24.49C424.34 24.45 428 22.31 428 20C428 17.65 424.38 15.22 420 15.18C410.38 15.08 409.95 17.36 400 19.72" stroke="rgba(36, 36, 36, 0.7)" stroke-width="2"></path>
        <path d="M460 12.5C455.33 12.5 451.76 16.37 451.76 20C451.76 23.45 455.42 26.67 460 26.67C467.32 26.67 475.56 23.51 475.56 20C475.56 16.42 467.23 12.5 460 12.5" stroke="rgba(36, 36, 36, 0.7)" stroke-width="2"></path>
        <path d="M560 3.33C556.08 3.33 551.67 12.17 551.67 20C551.67 25.4 556.02 29.8 560 29.8C563.75 29.8 567.14 25.3 567.14 20C567.14 12.07 563.81 3.33 560 3.33" stroke="rgba(36, 36, 36, 0.7)" stroke-width="2"></path>
        <path d="M820 14.32C815.86 14.76 814.6 16.06 813.06 20C809.6 28.9 807.84 31.56 810 40C811.31 45.12 815.75 47.11 820 47.11C822.86 47.11 821.58 43.16 824.21 40C831.58 31.15 831.83 31.23 840 23.1C841.88 21.23 844.31 21.51 844.31 20C844.31 18.53 842.48 17.72 840 17.14C830.32 14.88 829.33 13.33 820 14.32" stroke="rgba(36, 36, 36, 0.7)" stroke-width="2"></path>
        <path d="M980 7.5C977.57 7.5 977.73 13.81 977.73 20C977.73 23.91 977.8 27.69 980 27.69C983.1 27.69 988.33 24.34 988.33 20C988.33 14.25 982.87 7.5 980 7.5" stroke="rgba(36, 36, 36, 0.7)" stroke-width="2"></path>
        <path d="M1120 4C1116.28 4 1114.89 12.42 1114.89 20C1114.89 23.9 1116.79 26.96 1120 26.96C1124.8 26.96 1130.91 24.6 1130.91 20C1130.91 13.12 1124.29 4 1120 4" stroke="rgba(36, 36, 36, 0.7)" stroke-width="2"></path>
        <path d="M200 29.58C196.37 29.58 194.57 35.01 194.57 40C194.57 43.85 196.63 47.25 200 47.25C205.02 47.25 211.36 44.12 211.36 40C211.36 35.29 204.76 29.58 200 29.58" stroke="rgba(36, 36, 36, 0.7)" stroke-width="2"></path>
        <path d="M540 33.73C536.66 33.73 533.6 36.19 533.6 40C533.6 47.33 536.54 56 540 56C543.55 56 547.62 47.15 547.62 40C547.62 36.02 543.67 33.73 540 33.73" stroke="rgba(36, 36, 36, 0.7)" stroke-width="2"></path>
        <path d="M600 38.44C597.24 38.44 594.29 38.1 594.29 40C594.29 43.49 597.73 49.23 600 49.23C602.02 49.23 602.86 44.03 602.86 40C602.86 38.64 601.52 38.44 600 38.44" stroke="rgba(36, 36, 36, 0.7)" stroke-width="2"></path>
        <path d="M760 35.89C757.56 35.89 755.25 36.99 754.74 40C753.21 49.04 753.88 50.64 755.91 60C756.51 62.75 757.52 64.22 760 64.22C764.7 64.22 769.65 64.18 770.27 60C771.45 52.07 767.69 49.57 763.61 40C762.55 37.52 762 35.89 760 35.89" stroke="rgba(36, 36, 36, 0.7)" stroke-width="2"></path>
        <path d="M920 36.28C915.06 36.85 910.59 38.31 910.59 40C910.59 41.65 915.28 41.52 920 42.96C929.99 46.01 932.08 49.99 940 48.97C943.59 48.51 943.02 44.18 943.02 40C943.02 38 942.13 36.96 940 36.62C930.62 35.1 929.77 35.16 920 36.28" stroke="rgba(36, 36, 36, 0.7)" stroke-width="2"></path>
        <path d="M1020 36.47C1017.85 36.47 1015.81 37.66 1015.81 40C1015.81 45.43 1017.78 52 1020 52C1022.25 52 1024.74 45.33 1024.74 40C1024.74 37.56 1022.32 36.47 1020 36.47" stroke="rgba(36, 36, 36, 0.7)" stroke-width="2"></path>
        <path d="M860 54.4C859.04 54.4 858.25 57.27 858.25 60C858.25 61.82 859.05 63.5 860 63.5C861 63.5 862.15 61.85 862.15 60C862.15 57.3 860.99 54.4 860 54.4" stroke="rgba(36, 36, 36, 0.7)" stroke-width="2"></path>
        <path d="M1000 53.08C995.64 53.08 992.34 55.73 992.34 60C992.34 67.76 994.88 77.14 1000 77.14C1006.21 77.14 1015 66.97 1015 60C1015 54.94 1006.97 53.08 1000 53.08" stroke="rgba(36, 36, 36, 0.7)" stroke-width="2"></path>
        <path d="M1500 54.4C1498.76 54.4 1497.14 57.21 1497.14 60C1497.14 62.7 1498.76 65.38 1500 65.38C1501.17 65.38 1501.97 62.7 1501.97 60C1501.97 57.21 1501.17 54.4 1500 54.4" stroke="rgba(36, 36, 36, 0.7)" stroke-width="2"></path>
        <path d="M18.5 0C18.5 2.87 6.16 10.72 0 10.72C-3.09 10.72 -3.39 1.97 0 0C5.86 -3.39 18.5 -2.49 18.5 0" stroke="rgba(36, 36, 36, 0.7)" stroke-width="2"></path>
        <path d="M33.16 20C33.16 13.37 36.44 12.71 40 5.56C41.42 2.71 40.39 0.76 43.13 0C50.39 -2.02 51.56 0 60 0C70 0 70 0 80 0C90 0 90 0 100 0C110 0 110 0 120 0C130 0 130 0 140 0C150 0 150 0 160 0C165.36 0 166.25 -2.12 170.71 0C176.25 2.63 175.3 9.51 180 9.51C184.82 9.51 184.04 2.71 189.75 0C194.04 -2.04 194.88 0 200 0C206.83 0 207.81 -2.14 213.67 0C217.81 1.51 216.93 7.31 220 7.31C222.93 7.31 221.75 1.43 225.67 0C231.75 -2.22 232.83 0 240 0C250 0 250 0 260 0C270 0 270 0 280 0C290 0 290 0 300 0C306.5 0 310.92 -3.92 313 0C316.22 6.08 308.54 11.01 310.59 20C312.04 26.35 315.49 25.18 320 30.67C323.7 35.18 326.24 34.63 327 40C328.32 49.3 326.24 50.15 324.15 60C322.74 66.62 322.96 66.95 320 72.94C318.03 76.95 318.18 78.63 314.29 80C308.18 82.16 307.14 80 300 80C292.86 80 287.29 84.05 285.71 80C283.39 74.05 287.56 69.17 292.2 60C294.7 55.06 296.18 55.97 300 51.79C305.31 45.97 310.45 45.57 310.45 40C310.45 35.08 306.22 33.18 300 30.8C291 27.36 288.96 25.97 280 28.37C271.81 30.57 269.82 32.46 265.71 40C261.2 48.27 264.99 50.25 262.76 60C262.13 62.75 262.25 63.35 260 65C250.87 71.71 249.8 70.58 240 76.73C237.85 78.08 238.5 79.61 236.09 80C228.5 81.24 228.05 80 220 80C210 80 210 80 200 80C192.5 80 191.87 81.6 185 80C181.87 79.27 182.46 75.35 180 75.35C177.63 75.35 178.35 79.3 175.35 80C168.35 81.63 167.68 80 160 80C154.31 80 152.13 83.37 148.62 80C142.13 73.76 147.15 63.91 140 60.77C132.84 57.63 129.09 62.46 120 67.43C111.5 72.07 112.86 74.95 104.83 80C102.86 81.24 102.41 80 100 80C98.66 80 97.38 81.18 97.31 80C96.76 71.18 102.83 67.65 98.75 60C94.17 51.4 89.76 53.06 80 47.5C72.21 43.06 63.64 43.09 63.64 40C63.64 37.09 73.71 40.3 80 35.5C86.81 30.3 89.84 27.17 89.84 20C89.84 14.65 85.64 10.46 80 10.46C71.33 10.46 67.98 13.39 61.21 20C57.98 23.16 63.52 28.86 60 30C52.92 32.28 49.08 30.22 40 26.84C35.66 25.22 33.16 24.01 33.16 20" stroke="rgba(36, 36, 36, 0.7)" stroke-width="2"></path>
        <path d="M200 19.07C199.53 19.07 199.41 19.43 199.11 20C193.97 29.9 188.88 30.47 189.13 40C189.33 47.72 193.24 53.91 200 54.49C208.67 55.24 209.26 45.52 220 42.67C229.26 40.21 230.21 44.72 240 43.86C245.45 43.38 246.96 43.88 250.48 40C256.96 32.86 255.21 30.89 260 21.82C260.49 20.89 261.05 20.83 261.05 20C261.05 19.42 260.67 19.26 260 19C250.15 15.26 249.33 11.69 240 12C234.41 12.19 234.06 15.12 230.15 20C224.06 27.58 226.35 36.92 220 36.92C211.85 36.92 210.59 28.44 201.14 20C200.59 19.51 200.54 19.07 200 19.07" stroke="rgba(36, 36, 36, 0.7)" stroke-width="2"></path>
        <path d="M340 8.89C335.22 8.89 330.24 2.56 330.24 0C330.24 -1.89 335.12 0 340 0C344.44 0 348.89 -1.84 348.89 0C348.89 2.6 344.55 8.89 340 8.89" stroke="rgba(36, 36, 36, 0.7)" stroke-width="2"></path>
        <path d="M349.26 20C349.26 14.33 353.77 13.42 360 9.26C368.75 3.42 369.58 4.47 379.23 0C379.58 -0.16 379.62 0 380 0C390 0 390 0 400 0C410 0 410 0 420 0C429.05 0 438.1 -2.16 438.1 0C438.1 2.42 429.52 5.97 420 9.16C410.47 12.36 409.08 9.19 400 12.78C395.37 14.61 392.57 16.4 392.57 20C392.57 23.57 395.37 25.42 400 27.12C409.09 30.47 410.6 31.87 420 30.11C429.6 28.31 431.54 26.86 438 20C441.54 16.25 439.01 8.89 440 8.89C440.99 8.89 438.69 15.8 441.96 20C448.69 28.65 449.79 30.52 460 34.6C468.81 38.12 472.59 39.16 480 35.2C486.25 31.86 487.31 27.49 487.31 20C487.31 13.34 485.81 10.39 480 6.9C472.15 2.18 469.93 5.57 460 3.57C452.79 2.12 445.71 0.91 445.71 0C445.71 -0.88 452.86 0 460 0C470 0 470 0 480 0C490 0 490 0 500 0C502.19 0 503.51 -1.74 504.39 0C508.58 8.26 506.01 10.56 510.15 20C513.82 28.37 514.86 27.96 520 35.61C521.58 37.96 522.49 37.42 523.6 40C527.72 49.61 531.51 51.07 530.45 60C529.71 66.18 526.15 69.79 520 70.22C510.92 70.85 507.89 59.66 500 62.13C492.29 64.55 495.86 73.7 488.8 80C485.86 82.63 484.4 80 480 80C475.77 80 474.79 82.15 471.54 80C464.79 75.53 467.35 70.37 460 66.76C451.58 62.63 450.01 65.59 440 64.52C430.01 63.46 429.89 64.08 420 62.5C415.77 61.82 415.88 61.24 411.76 60C405.88 58.23 406.04 57.17 400 56.49C390.16 55.38 387.99 60.49 380 56.43C371.77 52.25 374.31 47.73 367.57 40C364.31 36.26 363.36 37.16 360 33.49C354.2 27.16 349.26 26.44 349.26 20" stroke="rgba(36, 36, 36, 0.7)" stroke-width="2"></path>
        <path d="M535.24 20C531.05 10.76 527.57 6.58 529.14 0C529.95 -3.42 534.57 0 540 0C546.55 0 552.48 -3.7 553.1 0C554.15 6.3 548.65 10.28 543.33 20C542.1 22.24 541.84 23.92 540 23.92C537.79 23.92 536.48 22.72 535.24 20" stroke="rgba(36, 36, 36, 0.7)" stroke-width="2"></path>
        <path d="M574.29 20C573.76 10.26 575.56 9.18 578.18 0C578.41 -0.82 579.09 0 580 0C580.43 0 580.48 -0.19 580.87 0C590.48 4.7 590.76 9.78 600 9.78C607.42 9.78 606.71 3.66 614.19 0C616.71 -1.23 617.1 0 620 0C626.43 0 632.22 -3.68 632.86 0C633.96 6.32 621.51 12.52 623.48 20C625.08 26.1 631.35 25.38 640 27.17C649.61 29.16 650.04 26.79 660 27.57C670.04 28.35 670.99 26.72 680 30.29C686.68 32.94 685.63 35.21 691.38 40C695.63 43.54 695.85 43.28 700 46.94C707.18 53.28 709.6 52 714.03 60C718.76 68.53 722.03 74.73 718.33 80C715.01 84.73 709.16 80 700 80C690 80 690 80 680 80C670 80 670 80 660 80C653.73 80 647.46 82.77 647.46 80C647.46 75.89 652.75 71.78 660 66.23C665.81 61.78 673.57 63.04 673.57 60C673.57 57 666.96 54.15 660 54.15C650.18 54.15 649.31 61.69 640 60C629.31 58.06 629.27 54.22 620 46.88C616.65 44.22 618.16 42.54 614.76 40C608.16 35.07 607.93 33.47 600 31.95C590.55 30.14 587.46 36.8 580 33.33C574.6 30.82 574.67 26.93 574.29 20" stroke="rgba(36, 36, 36, 0.7)" stroke-width="2"></path>
        <path d="M680 0.56C679.73 0.56 679.41 0.16 679.41 0C679.41 -0.12 679.7 0 680 0C680.21 0 680.43 -0.11 680.43 0C680.43 0.17 680.24 0.56 680 0.56" stroke="rgba(36, 36, 36, 0.7)" stroke-width="2"></path>
        <path d="M707.2 20C705.85 12.38 710.27 8.31 715.59 0C716.67 -1.69 717.8 0 720 0C723.03 0 723.4 -1.24 726.05 0C733.4 3.45 733.22 9.38 740 9.38C746.07 9.38 745.3 3.03 751.76 0C755.3 -1.66 755.88 0 760 0C770 0 770 0 780 0C786.25 0 787.57 -2.57 792.5 0C797.57 2.64 796.39 5.12 800 10.43C803.19 15.12 806.11 14.97 806.11 20C806.11 26.85 803.33 27.23 800 34.19C798.54 37.23 798.75 37.46 796.54 40C788.75 48.96 787.3 57.2 780 57.2C773.85 57.2 775.43 48.15 769.64 40C765.43 34.07 765.33 29.04 760 29.04C753.49 29.04 748.16 32.81 745.96 40C743.43 48.29 746.32 51.05 750.54 60C753.34 65.94 754.13 68.75 760 69.78C768.86 71.34 769.87 66.32 780 65.19C789.87 64.09 791.99 61.41 800 65.31C807.21 68.82 810.44 75.35 810.44 80C810.44 82.69 805.22 80 800 80C790 80 790 80 780 80C770 80 770 80 760 80C750 80 750 80 740 80C735 80 732.33 83.29 730 80C725.23 73.29 724.61 69.63 725.8 60C727.08 49.63 736.4 48.93 734.93 40C733.5 31.36 728.44 30.93 720 24.85C714.57 20.93 708.05 24.81 707.2 20" stroke="rgba(36, 36, 36, 0.7)" stroke-width="2"></path>
        <path d="M820 8.64C813.11 6.36 807.74 2.38 807.74 0C807.74 -1.94 813.87 0 820 0C830 0 830 0 840 0C847.88 0 849.52 -2.64 855.77 0C859.52 1.59 856.41 5.69 860 8.46C868.52 15.03 871.97 20.8 880 18.67C887.92 16.57 884.59 6.84 891.91 0C894.59 -2.5 895.95 0 900 0C903.72 0 904.71 -2.09 907.45 0C914.71 5.53 914.16 15.24 920 15.24C925.36 15.24 923.44 4.89 929.85 0C933.44 -2.73 934.92 0 940 0C944.23 0 945.39 -2.34 948.46 0C955.39 5.29 953.68 8.18 960 15.25C962.63 18.18 964.38 16.69 966.36 20C971.77 29.06 970.95 29.86 974.77 40C977.77 47.95 977.22 48.16 980 56.19C980.68 58.16 981.7 58.17 981.7 60C981.7 61.33 980.92 62.5 980 62.5C978.99 62.5 979.28 60.77 977.84 60C969.28 55.44 967.92 57.31 960 51.85C953.42 47.31 954.35 45.99 948.84 40C944.35 35.13 945.62 33.12 940 30.13C931.2 25.45 929.63 23.58 920 24.65C909.63 25.8 909.46 28.87 900 34.58C896.75 36.54 894.58 37.28 894.58 40C894.58 42.75 896.59 43.88 900 45.52C909.3 49.99 910.34 48.1 920 52.22C927.34 55.34 927.17 55.84 934 60C937.17 61.93 937.87 61.44 940 64.39C945.08 71.44 948.42 74.71 948.42 80C948.42 82.51 944.21 80 940 80C933.96 80 932.78 82.43 927.92 80C922.78 77.43 925.43 71.71 920 70C911.47 67.31 910 71.27 900 71.2C890 71.13 888.87 73 880 69.71C873.79 67.4 873.28 65.92 869.85 60C864.68 51.06 866.51 49.93 862.8 40C861.58 36.75 861.51 33.64 860 33.64C858.44 33.64 857.71 36.59 856.67 40C853.71 49.77 851.11 50.38 852 60C852.78 68.38 855.51 68.34 860 76C861.37 78.34 863.72 78.81 863.72 80C863.72 80.81 861.86 80 860 80C850 80 850 80 840 80C837.05 80 836.13 81.86 834.1 80C826.13 72.71 827.59 70.17 820 61.7C818.63 60.17 816.19 60.87 816.19 60C816.19 59.13 818.79 59.88 820 58.22C826.09 49.88 824.68 48.58 830.79 40C834.68 34.54 834.9 34.51 840 30.14C846.57 24.51 854.12 24.94 854.12 20C854.12 15.19 847.8 13.25 840 10.65C830.74 7.57 829.24 11.69 820 8.64" stroke="rgba(36, 36, 36, 0.7)" stroke-width="2"></path>
        <path d="M1000 14.19C992.65 7.97 986.67 4.21 986.67 0C986.67 -2.88 993.34 0 1000 0C1006.11 0 1007.68 -2.83 1012.22 0C1017.68 3.39 1015.99 12.44 1020 12.44C1024.12 12.44 1022.81 3.52 1028.48 0C1032.81 -2.7 1034.24 0 1040 0C1050 0 1050 0 1060 0C1070 0 1070 0 1080 0C1084.76 0 1085.56 -1.98 1089.53 0C1095.56 3.02 1094.88 4.89 1100 10C1104.9 14.89 1109.57 14.65 1109.57 20C1109.57 26.37 1106.55 31.64 1100 33.43C1091.77 35.67 1090.11 28.63 1080 28.06C1070.11 27.5 1069.53 28.16 1060 31.18C1050.71 34.13 1050.71 35.03 1042.35 40C1040.71 40.98 1041.14 43.08 1040 43.08C1038.91 43.08 1039.32 41.18 1037.89 40C1029.32 32.97 1029.03 33.21 1020 26.67C1015.23 23.21 1015.28 23.12 1010.29 20C1005.28 16.88 1004.46 17.97 1000 14.19" stroke="rgba(36, 36, 36, 0.7)" stroke-width="2"></path>
        <path d="M1144 20C1144.85 9.81 1145.1 6.92 1150.64 0C1153.1 -3.08 1155.32 0 1160 0C1165.79 0 1169.96 -3.65 1171.58 0C1174.4 6.35 1166.38 11.65 1168.89 20C1170.59 25.68 1175.06 23.38 1180 28.06C1185.61 33.38 1185.57 33.63 1190 40C1195.57 48.01 1194 49.49 1200 56.82C1202.18 59.49 1206.36 58.29 1206.36 60C1206.36 61.77 1202.12 60.89 1200 63.78C1194.78 70.89 1197.77 75.05 1191.67 80C1187.77 83.16 1185.84 80 1180 80C1170 80 1170 80 1160 80C1154.03 80 1148.06 82 1148.06 80C1148.06 77.49 1153.72 75.02 1160 70.98C1169.26 65.02 1179.15 65.3 1179.15 60C1179.15 54.81 1169.11 55.72 1160 50C1153.19 45.72 1150.87 46.65 1147.32 40C1142.87 31.65 1143.19 29.81 1144 20" stroke="rgba(36, 36, 36, 0.7)" stroke-width="2"></path>
        <path d="M1193.89 20C1193.89 17.83 1197.07 15.77 1200 15.77C1202.52 15.77 1204.78 17.84 1204.78 20C1204.78 22.24 1202.53 24.58 1200 24.58C1197.08 24.58 1193.89 22.23 1193.89 20" stroke="rgba(36, 36, 36, 0.7)" stroke-width="2"></path>
        <path d="M1234.29 20C1231.43 10.84 1229.96 7.16 1232 0C1232.81 -2.84 1236 0 1240 0C1250 0 1250 0 1260 0C1265.34 0 1266.33 -2.24 1270.68 0C1276.33 2.91 1274.82 5.73 1280 10.3C1286.15 15.73 1290.95 13.32 1293.33 20C1296.25 28.17 1294.17 30.91 1290.61 40C1287.5 47.93 1287.16 50.54 1280 54.05C1271.86 58.04 1266.98 58.93 1260 55C1254.48 51.9 1259.32 46.35 1255 40C1249.32 31.65 1247.48 32.82 1240 25.6C1237.12 22.82 1235.43 23.64 1234.29 20" stroke="rgba(36, 36, 36, 0.7)" stroke-width="2"></path>
        <path d="M1306.27 20C1306.8 12.18 1313.45 6 1320 6C1326.05 6 1331.21 12.42 1331.48 20C1331.82 29.42 1320.57 30.29 1321.22 40C1321.91 50.29 1327.25 50.33 1334.15 60C1336.64 63.49 1337.71 62.72 1340 66.32C1344.06 72.72 1346.84 75.27 1346.84 80C1346.84 82.11 1343.42 80 1340 80C1330 80 1330 80 1320 80C1313.24 80 1309.27 84.03 1306.49 80C1302.37 74.03 1303.59 69.29 1306.19 60C1309.19 49.29 1317.67 50.01 1317.69 40C1317.71 30.01 1305.65 29.18 1306.27 20" stroke="rgba(36, 36, 36, 0.7)" stroke-width="2"></path>
        <path d="M1367.65 20C1374.11 10.5 1373.23 9.67 1379.2 0C1379.41 -0.33 1379.6 0 1380 0C1390 0 1390 0 1400 0C1410 0 1410 0 1420 0C1430 0 1430 0 1440 0C1446.57 0 1453.14 -2.99 1453.14 0C1453.14 4.55 1448.04 13.12 1440 15.08C1431.47 17.15 1430.28 9.62 1420 8.06C1410.28 6.59 1408.56 5.56 1400 9.01C1393.75 11.53 1395.5 14.82 1390.37 20C1385.5 24.93 1385.11 24.53 1380 29.23C1374.23 34.53 1373.99 34.32 1368.6 40C1363.99 44.85 1364.35 50.28 1360 50.28C1355.59 50.28 1351.08 45.29 1351.08 40C1351.08 34.27 1355.3 33.92 1360 28.25C1363.58 23.92 1364.51 24.63 1367.65 20" stroke="rgba(36, 36, 36, 0.7)" stroke-width="2"></path>
        <path d="M1466.78 20C1467.11 9.98 1464.36 6.37 1468.57 0C1470.97 -3.63 1474.28 0 1480 0C1490 0 1490 0 1500 0C1510 0 1515 -5 1520 0C1525 5 1520 10 1520 20C1520 30 1520 30 1520 40C1520 50 1520 50 1520 60C1520 68.66 1522.52 77.33 1520 77.33C1517.02 77.33 1512.95 69.32 1509.01 60C1505.07 50.66 1505.91 50.12 1504.24 40C1502.61 30.12 1504.11 29.75 1502.4 20C1501.99 17.68 1501.25 15.86 1500 15.86C1498.71 15.86 1497.98 17.65 1497.33 20C1494.64 29.72 1495.89 30.14 1493.33 40C1490.69 50.14 1485.87 50.4 1486.94 60C1488.1 70.4 1499.73 74.39 1497.78 80C1496.26 84.39 1488.89 80 1480 80C1473.68 80 1468.38 83.73 1467.37 80C1465.68 73.73 1474.62 69.99 1474.6 60C1474.57 49.99 1469.29 50.31 1467.27 40C1465.38 30.31 1466.46 29.98 1466.78 20" stroke="rgba(36, 36, 36, 0.7)" stroke-width="2"></path>
        <path d="M120 30.64C114.69 34.05 111.2 35 111.2 40C111.2 45.97 113.93 48.52 120 52.57C128.33 58.12 130.78 60.98 140 59.2C150.78 57.12 150.21 52.28 160 44.84C162.84 42.68 165.26 42.8 165.26 40C165.26 35.97 163.99 34.1 160 31.18C151.36 24.87 150.05 21.68 140 21.54C130.05 21.41 129.09 24.82 120 30.64" stroke="rgba(36, 36, 36, 0.7)" stroke-width="2"></path>
        <path d="M500 37.37C495.5 37.37 490.91 37.4 490.91 40C490.91 43.71 495.75 50 500 50C503.86 50 507.14 43.9 507.14 40C507.14 37.58 503.62 37.37 500 37.37" stroke="rgba(36, 36, 36, 0.7)" stroke-width="2"></path>
        <path d="M559.52 40C559.69 39.74 559.71 39.61 560 39.61C560.86 39.61 560.94 39.71 561.82 40C570.94 43.03 572.38 41.03 580 46.25C586.97 51.03 588.18 52.1 591 60C594.21 68.98 595.48 73.76 592.05 80C589.98 83.76 586.03 80 580 80C571.76 80 571.2 81.35 563.51 80C561.2 79.59 562.15 76.49 560 76.49C555.4 76.49 555.15 79.1 550 80C545.15 80.85 545 80 540 80C536.88 80 533.75 81.32 533.75 80C533.75 78.1 537.66 77.31 540 73.55C543.88 67.31 542.45 66.42 546.18 60C552.21 49.64 552.78 49.94 559.52 40" stroke="rgba(36, 36, 36, 0.7)" stroke-width="2"></path>
        <path d="M993.08 40C993.08 37.19 996.95 33.33 1000 33.33C1002.5 33.33 1004.19 37 1004.19 40C1004.19 42.07 1002.29 43.46 1000 43.46C996.74 43.46 993.08 42.26 993.08 40" stroke="rgba(36, 36, 36, 0.7)" stroke-width="2"></path>
        <path d="M1110.48 40C1114.77 36.51 1115.3 34.2 1120 34.2C1124.41 34.2 1127.17 35.57 1128.7 40C1131.64 48.47 1128.67 50 1128.94 60C1129.22 70 1132.8 73.29 1129.8 80C1128.33 83.29 1124.9 80 1120 80C1115.55 80 1114.63 82.11 1111.11 80C1104.63 76.11 1105.43 74.11 1100 68C1096.54 64.11 1093.33 64.14 1093.33 60C1093.33 55.38 1096.23 54.88 1100 50.48C1104.81 44.88 1104.77 44.65 1110.48 40" stroke="rgba(36, 36, 36, 0.7)" stroke-width="2"></path>
        <path d="M0 48.33C2.84 48.33 5.37 53.88 10 60C15.37 67.09 12.99 72.08 20 74.74C27.99 77.76 30.85 69.8 40 71.36C46.23 72.43 50.77 77.57 50.77 80C50.77 81.89 45.39 80 40 80C30 80 30 80 20 80C10 80 5 85 0 80C-5 75 0 70 0 60C0 54.16 -2.16 48.33 0 48.33" stroke="rgba(36, 36, 36, 0.7)" stroke-width="2"></path>
        <path d="M1390 60C1394.92 54.48 1393.62 51.48 1400 49.11C1408.62 45.9 1410.75 46.23 1420 48.85C1429.94 51.67 1429.41 54.16 1438.38 60C1439.41 60.67 1439.37 60.81 1440 61.88C1445.27 70.81 1450.18 73.92 1450.18 80C1450.18 82.98 1445.09 80 1440 80C1430 80 1430 80 1420 80C1410 80 1410 80 1400 80C1390 80 1390 80 1380 80C1375.82 80 1371.63 81.75 1371.63 80C1371.63 77.51 1375.97 75.91 1380 71.53C1385.16 65.91 1384.92 65.69 1390 60" stroke="rgba(36, 36, 36, 0.7)" stroke-width="2"></path>
        <path d="M361.3 80C361.3 74.8 371.01 62.08 380 62.08C388.32 62.08 395.93 74.62 395.93 80C395.93 83.58 387.97 80 380 80C370.65 80 361.3 83.76 361.3 80" stroke="rgba(36, 36, 36, 0.7)" stroke-width="2"></path>
        <path d="M611.48 80C611.48 76.8 615.59 69.55 620 69.55C624.64 69.55 629.58 76.88 629.58 80C629.58 82.11 624.79 80 620 80C615.74 80 611.48 82.02 611.48 80" stroke="rgba(36, 36, 36, 0.7)" stroke-width="2"></path>
        <path d="M1014.67 80C1014.67 78.22 1017.23 74.07 1020 74.07C1022.97 74.07 1026.15 78.28 1026.15 80C1026.15 81.24 1023.08 80 1020 80C1017.34 80 1014.67 81.19 1014.67 80" stroke="rgba(36, 36, 36, 0.7)" stroke-width="2"></path>
        <path d="M1074.86 80C1074.86 78.99 1077.48 76.33 1080 76.33C1082.36 76.33 1084.62 78.97 1084.62 80C1084.62 80.81 1082.31 80 1080 80C1077.43 80 1074.86 80.82 1074.86 80" stroke="rgba(36, 36, 36, 0.7)" stroke-width="2"></path>
        <path d="M6 0C6 0.93 2 3.48 0 3.48C-1 3.48 -1.1 0.64 0 0C1.9 -1.1 6 -0.81 6 0" stroke="rgba(36, 36, 36, 0.7)" stroke-width="2"></path>
        <path d="M60 1.6C59.02 1.47 58.75 0.5 58.75 0C58.75 -0.3 59.38 0 60 0C70 0 70 0 80 0C90 0 90 0 100 0C110 0 110 0 120 0C121.43 0 122.86 -1.24 122.86 0C122.86 8.76 121.43 10 120 20C120 20 120 20 120 20C110.6 30 110.36 29.83 101.2 40C100.36 40.94 100.86 42.22 100 42.22C98.68 42.22 97.02 41.8 96.84 40C95.91 30.69 101.54 28.32 97.78 20C93.12 9.71 90.44 7.86 80 2.77C71.55 -1.34 69.65 2.86 60 1.6" stroke="rgba(36, 36, 36, 0.7)" stroke-width="2"></path>
        <path d="M160 15.38C156.36 15.38 150.91 5.1 150.91 0C150.91 -2.59 155.45 0 160 0C162.38 0 164.76 -1.75 164.76 0C164.76 5.94 163.28 15.38 160 15.38" stroke="rgba(36, 36, 36, 0.7)" stroke-width="2"></path>
        <path d="M165 20C166.24 14.93 172.74 15.61 180 15.61C184.24 15.61 187.43 16.24 188 20C189.28 28.43 182.86 30.24 183.7 40C184.58 50.24 192.62 52.4 191.43 60C190.77 64.26 184.75 60.29 180 63.72C170.9 70.29 172.33 72.99 163.72 80C162.33 81.13 161.86 80 160 80C158.62 80 157.79 81.16 157.24 80C153.01 71.16 149.55 68.66 150.43 60C150.93 55.11 155.46 56.75 160 52.9C167.26 46.75 172.88 47.65 174.04 40C175.38 31.2 163.26 27.12 165 20" stroke="rgba(36, 36, 36, 0.7)" stroke-width="2"></path>
        <path d="M200 7.44C197.76 7.44 196 2.52 196 0C196 -1.2 198 0 200 0C202.67 0 205.33 -1.37 205.33 0C205.33 2.35 202.43 7.44 200 7.44" stroke="rgba(36, 36, 36, 0.7)" stroke-width="2"></path>
        <path d="M215.43 20C215.43 18.3 217.95 16.92 220 16.92C221.47 16.92 222.46 18.38 222.46 20C222.46 21.97 221.54 24.1 220 24.1C218.02 24.1 215.43 21.89 215.43 20" stroke="rgba(36, 36, 36, 0.7)" stroke-width="2"></path>
        <path d="M240 5.75C236.06 5.75 233.13 1.63 233.13 0C233.13 -1.25 236.56 0 240 0C247.93 0 255.86 -1.39 255.86 0C255.86 1.48 247.42 5.75 240 5.75" stroke="rgba(36, 36, 36, 0.7)" stroke-width="2"></path>
        <path d="M280 15.33C270.95 9.57 264.14 4.46 264.14 0C264.14 -3.21 272.07 0 280 0C290 0 290 0 300 0C302.34 0 304.6 -1.86 304.67 0C304.99 8.14 302.99 10.14 300.78 20C300.66 20.54 300.52 20.8 300 20.8C297.91 20.8 297.73 20.59 295.56 20C287.73 17.86 286.66 19.57 280 15.33" stroke="rgba(36, 36, 36, 0.7)" stroke-width="2"></path>
        <path d="M358.52 20C358.52 19.22 359.04 18.92 360 18.52C369.78 14.5 371.45 10.66 380 11.16C384.16 11.4 385.43 15.23 385.43 20C385.43 28.7 385.38 37.71 380 38.1C372.67 38.64 369.83 30.15 360 21.86C359.09 21.1 358.52 20.89 358.52 20" stroke="rgba(36, 36, 36, 0.7)" stroke-width="2"></path>
        <path d="M400 5.83C394.83 5.28 390.67 1.58 390.67 0C390.67 -1.34 395.34 0 400 0C410 0 410 0 420 0C423.1 0 426.19 -0.74 426.19 0C426.19 0.83 423.35 2.38 420 3.13C410.25 5.3 409.49 6.84 400 5.83" stroke="rgba(36, 36, 36, 0.7)" stroke-width="2"></path>
        <path d="M496.92 20C496.92 16.82 498.59 13.33 500 13.33C501.36 13.33 502.46 16.77 502.46 20C502.46 22.21 501.34 24.21 500 24.21C498.57 24.21 496.92 22.26 496.92 20" stroke="rgba(36, 36, 36, 0.7)" stroke-width="2"></path>
        <path d="M540 9.29C537.98 9.29 536.29 3.39 536.29 0C536.29 -1.26 538.14 0 540 0C542.24 0 544.48 -1.41 544.48 0C544.48 3.24 542.08 9.29 540 9.29" stroke="rgba(36, 36, 36, 0.7)" stroke-width="2"></path>
        <path d="M583.85 20C583.85 17.49 592.11 15.33 600 15.33C605.18 15.33 610 17.51 610 20C610 22.57 605.24 25.45 600 25.45C592.16 25.45 583.85 22.55 583.85 20" stroke="rgba(36, 36, 36, 0.7)" stroke-width="2"></path>
        <path d="M730 20C730 17.21 735.28 19.29 740 17.19C750.28 12.62 751.03 13.04 760 6.67C763.13 4.45 760.88 1.11 764.21 0C770.88 -2.22 772.11 0 780 0C782.35 0 784.69 -1.83 784.69 0C784.69 7.54 783.05 9.91 780 18.75C779.6 19.91 779.03 19.79 777.78 20C769.03 21.51 768.54 19.8 760 22.19C749.65 25.09 748.97 31.25 740 30.59C733.97 30.15 730 23.91 730 20" stroke="rgba(36, 36, 36, 0.7)" stroke-width="2"></path>
        <path d="M820 2.95C817.54 2.53 815.81 0.81 815.81 0C815.81 -0.66 817.9 0 820 0C830 0 830 0 840 0C843.08 0 846.15 -0.94 846.15 0C846.15 1.14 843.54 3.76 840 4.16C830.46 5.24 829.63 4.61 820 2.95" stroke="rgba(36, 36, 36, 0.7)" stroke-width="2"></path>
        <path d="M891.22 20C891.22 13.47 895.24 5 900 5C905.08 5 910.91 13.7 910.91 20C910.91 24.25 905.31 26.1 900 26.1C895.46 26.1 891.22 24.02 891.22 20" stroke="rgba(36, 36, 36, 0.7)" stroke-width="2"></path>
        <path d="M930.34 20C929.51 12.04 933.21 8.96 937.54 0C938.04 -1.04 938.77 0 940 0C941.03 0 941.57 -0.85 942.05 0C947.17 9.15 951.87 12.3 951.2 20C950.84 24.12 945.56 23.64 940 23.64C935.13 23.64 930.74 23.86 930.34 20" stroke="rgba(36, 36, 36, 0.7)" stroke-width="2"></path>
        <path d="M1000 6.13C997.19 6.13 994.24 1.82 994.24 0C994.24 -1.25 997.12 0 1000 0C1002.64 0 1005.28 -1.21 1005.28 0C1005.28 1.85 1002.71 6.13 1000 6.13" stroke="rgba(36, 36, 36, 0.7)" stroke-width="2"></path>
        <path d="M1032.31 20C1030.93 11.62 1032.84 8.38 1036.06 0C1036.68 -1.62 1038.03 0 1040 0C1050 0 1050 0 1060 0C1070 0 1070 0 1080 0C1081.86 0 1082.3 -1.1 1083.72 0C1092.3 6.68 1091.93 7.71 1100 15.56C1102.2 17.71 1104.26 17.63 1104.26 20C1104.26 22.83 1103.17 25.89 1100 25.97C1091.04 26.19 1090.11 21.14 1080 20.6C1070.11 20.07 1070.06 23 1060 23.82C1050.06 24.63 1049.68 25.19 1040 23.85C1035.84 23.28 1032.9 23.54 1032.31 20" stroke="rgba(36, 36, 36, 0.7)" stroke-width="2"></path>
        <path d="M1240 6.25C1238.68 3.38 1238.67 2.59 1238.67 0C1238.67 -0.54 1239.34 0 1240 0C1250 0 1250 0 1260 0C1261.92 0 1262.47 -1.23 1263.84 0C1272.47 7.71 1271.7 9.18 1280 17.88C1281.24 19.18 1282.89 18.32 1282.92 20C1283.09 29.38 1281.82 30.06 1280.41 40C1280.36 40.33 1280.28 40.54 1280 40.54C1279.36 40.54 1279.26 40.32 1278.57 40C1269.26 35.71 1268.48 36.85 1260 31.33C1253.13 26.85 1252.98 26.42 1247.86 20C1242.98 13.88 1243.27 13.38 1240 6.25" stroke="rgba(36, 36, 36, 0.7)" stroke-width="2"></path>
        <path d="M1316.08 20C1316.08 17.79 1318.13 16 1320 16C1321.73 16 1323.28 17.83 1323.28 20C1323.28 22.96 1321.76 26.25 1320 26.25C1318.16 26.25 1316.08 22.91 1316.08 20" stroke="rgba(36, 36, 36, 0.7)" stroke-width="2"></path>
        <path d="M1375 20C1375 16.34 1377.65 11.71 1380 11.71C1382.25 11.71 1384.2 16.25 1384.2 20C1384.2 22.27 1382.18 23.74 1380 23.74C1377.58 23.74 1375 22.36 1375 20" stroke="rgba(36, 36, 36, 0.7)" stroke-width="2"></path>
        <path d="M1400 1.97C1397.58 1.97 1395.48 0.51 1395.48 0C1395.48 -0.47 1397.74 0 1400 0C1410 0 1420 -0.49 1420 0C1420 0.49 1409.84 1.97 1400 1.97" stroke="rgba(36, 36, 36, 0.7)" stroke-width="2"></path>
        <path d="M1440 6.89C1430.92 6.89 1420 1.77 1420 0C1420 -1.67 1430 0 1440 0C1443 0 1446 -1.37 1446 0C1446 2.08 1443.92 6.89 1440 6.89" stroke="rgba(36, 36, 36, 0.7)" stroke-width="2"></path>
        <path d="M1475.25 20C1474.47 10.28 1475.39 8.9 1477.5 0C1477.76 -1.1 1478.75 0 1480 0C1487.78 0 1494.27 -4.13 1495.56 0C1497.38 5.87 1491.14 10.13 1486.22 20C1483.36 25.73 1482.81 31.2 1480 31.2C1477.33 31.2 1475.72 25.88 1475.25 20" stroke="rgba(36, 36, 36, 0.7)" stroke-width="2"></path>
        <path d="M1512.4 20C1512.52 13.93 1517.92 8.82 1520 8.82C1521.72 8.82 1520 14.41 1520 20C1520 30 1520 30 1520 40C1520 50 1520 50 1520 60C1520 63.11 1520.9 66.22 1520 66.22C1518.93 66.22 1516.14 63.49 1516.06 60C1515.84 50.38 1520.28 49.78 1519.39 40C1518.45 29.78 1512.21 29.52 1512.4 20" stroke="rgba(36, 36, 36, 0.7)" stroke-width="2"></path>
        <path d="M381.67 40C381.67 36.61 390.61 35.02 400 33.97C409.77 32.88 410.22 33.86 420 35.73C425.98 36.87 431.52 36.78 431.52 40C431.52 44.05 426.83 48.6 420 50.27C411.07 52.46 409.65 50.3 400 47.72C390.48 45.17 381.67 43.49 381.67 40" stroke="rgba(36, 36, 36, 0.7)" stroke-width="2"></path>
        <path d="M632.17 40C632.17 37.94 635.86 37.45 640 36.6C649.77 34.61 650.04 34.06 660 34.32C670.04 34.58 670.35 35.24 680 37.65C681.73 38.08 682.76 38.49 682.76 40C682.76 43 683.02 45.81 680 46.67C671.64 49.04 669.99 46.8 660 46.46C649.99 46.11 649.46 47.48 640 45.29C635.54 44.25 632.17 42.28 632.17 40" stroke="rgba(36, 36, 36, 0.7)" stroke-width="2"></path>
        <path d="M775.66 40C775.66 30.87 777.24 21.05 780 21.05C782.87 21.05 786.92 31.25 786.92 40C786.92 44.33 783.06 47.2 780 47.2C777.43 47.2 775.66 43.95 775.66 40" stroke="rgba(36, 36, 36, 0.7)" stroke-width="2"></path>
        <path d="M837.37 40C838.17 38.26 838.48 37.18 840 37.18C842.18 37.18 844.14 37.53 844.76 40C847.01 48.94 847.06 50.28 845.75 60C844.68 67.95 843.8 75.33 840 75.33C835.7 75.33 830.16 68.19 829.55 60C828.84 50.52 832.94 49.67 837.37 40" stroke="rgba(36, 36, 36, 0.7)" stroke-width="2"></path>
        <path d="M872.8 40C873.24 34.88 876.57 31.22 880 31.22C883.22 31.22 882.6 35.99 886.1 40C892.6 47.45 891.95 48.79 900 54.14C906.99 58.79 916.19 57.37 916.19 60C916.19 62.57 908.24 64 900 64.53C890.14 65.17 889.61 64.29 880 62.35C878.38 62.02 878.05 61.59 877.54 60C874.45 50.41 872.01 49.27 872.8 40" stroke="rgba(36, 36, 36, 0.7)" stroke-width="2"></path>
        <path d="M954.65 40C954.65 33.75 956.97 26.47 960 26.47C963.18 26.47 967.08 33.98 967.08 40C967.08 43.58 963.34 45.68 960 45.68C957.13 45.68 954.65 43.35 954.65 40" stroke="rgba(36, 36, 36, 0.7)" stroke-width="2"></path>
        <path d="M1154.37 40C1154.37 32.82 1154.61 24.81 1160 24C1167.43 22.88 1170.44 29.55 1180 36.13C1182.06 37.55 1183.24 37.86 1183.24 40C1183.24 43.22 1183.18 46.25 1180 46.86C1171.56 48.47 1169.45 46.97 1160 44.44C1156.64 43.54 1154.37 43.04 1154.37 40" stroke="rgba(36, 36, 36, 0.7)" stroke-width="2"></path>
        <path d="M1357.11 40C1357.11 38.14 1358.57 36.19 1360 36.19C1361.41 36.19 1362.79 38.14 1362.79 40C1362.79 41.71 1361.41 43.33 1360 43.33C1358.57 43.33 1357.11 41.71 1357.11 40" stroke="rgba(36, 36, 36, 0.7)" stroke-width="2"></path>
        <path d="M206 60C211.52 55.28 212.63 55.38 220 53.78C229.63 51.69 230.74 50.71 240 52.63C245.74 53.82 250 56.27 250 60C250 63.78 244.9 63.69 240 67.64C232.51 73.69 233.09 75.14 225.22 80C223.09 81.32 222.61 80 220 80C210 80 210 80 200 80C198.75 80 197.5 80.95 197.5 80C197.5 76.41 198.17 75.22 200 70.91C202.42 65.22 201.52 63.84 206 60" stroke="rgba(36, 36, 36, 0.7)" stroke-width="2"></path>
        <path d="M553.53 60C553.53 55.38 555.6 50.43 560 50.43C567.63 50.43 569.05 54.88 577.6 60C579.05 60.87 579.38 60.85 580 62.4C583.4 70.85 585.64 73.26 585.64 80C585.64 82.06 582.82 80 580 80C576.14 80 575.36 81.89 572.28 80C565.36 75.75 565.93 74.05 560 67.72C556.56 64.05 553.53 64.03 553.53 60" stroke="rgba(36, 36, 36, 0.7)" stroke-width="2"></path>
        <path d="M688.42 60C690.45 54.84 694.62 53.89 700 53.89C703.69 53.89 705.35 55.96 706.57 60C709.31 69.02 710.27 72.83 707.92 80C706.99 82.83 703.96 80 700 80C694.87 80 691.69 83.39 689.73 80C685.9 73.39 685.31 67.9 688.42 60" stroke="rgba(36, 36, 36, 0.7)" stroke-width="2"></path>
        <path d="M733.04 60C733.04 52.75 736.91 45 740 45C742.97 45 745.16 52.65 745.16 60C745.16 65.49 742.92 70.67 740 70.67C736.86 70.67 733.04 65.59 733.04 60" stroke="rgba(36, 36, 36, 0.7)" stroke-width="2"></path>
        <path d="M1105.56 60C1105.56 52.33 1114.92 45.56 1120 45.56C1123.67 45.56 1123.06 52.75 1123.06 60C1123.06 69.25 1123.89 78.57 1120 78.57C1115.14 78.57 1105.56 68.84 1105.56 60" stroke="rgba(36, 36, 36, 0.7)" stroke-width="2"></path>
        <path d="M1318.1 60C1318.1 58.24 1319.04 56.92 1320 56.92C1320.97 56.92 1321.95 58.23 1321.95 60C1321.95 69.77 1320.96 80 1320 80C1319.04 80 1318.1 69.78 1318.1 60" stroke="rgba(36, 36, 36, 0.7)" stroke-width="2"></path>
        <path d="M1395.1 60C1395.1 56.77 1396.71 55.06 1400 54.67C1409.16 53.59 1410.31 54.97 1420 57.05C1422.74 57.64 1422.89 57.98 1424.86 60C1432.89 68.21 1432.64 68.6 1440 77.5C1440.91 78.6 1441.4 79.16 1441.4 80C1441.4 80.41 1440.7 80 1440 80C1430 80 1430 80 1420 80C1412.94 80 1412.62 81.16 1405.88 80C1402.62 79.44 1401.53 79.38 1400 76.55C1396.14 69.38 1395.1 67.71 1395.1 60" stroke="rgba(36, 36, 36, 0.7)" stroke-width="2"></path>
        <path d="M33.33 80C33.33 79.36 36.87 77.53 40 77.53C41.74 77.53 43.08 79.31 43.08 80C43.08 80.54 41.54 80 40 80C36.66 80 33.33 80.6 33.33 80" stroke="rgba(36, 36, 36, 0.7)" stroke-width="2"></path>
        <path d="M372.17 80C372.17 77.82 376.24 72.5 380 72.5C383.49 72.5 386.67 77.75 386.67 80C386.67 81.5 383.34 80 380 80C376.09 80 372.17 81.57 372.17 80" stroke="rgba(36, 36, 36, 0.7)" stroke-width="2"></path>
        <path d="M477.95 80C477.95 74.21 478.96 66.67 480 66.67C481.05 66.67 482.13 74.24 482.13 80C482.13 80.91 481.07 80 480 80C478.98 80 477.95 80.88 477.95 80" stroke="rgba(36, 36, 36, 0.7)" stroke-width="2"></path>
        <path d="M654.93 80C654.93 78.34 657.03 74.43 660 74.43C664.42 74.43 669.71 78.51 669.71 80C669.71 81.29 664.86 80 660 80C657.46 80 654.93 81.12 654.93 80" stroke="rgba(36, 36, 36, 0.7)" stroke-width="2"></path>
        <path d="M750 80C750 78.77 754.82 75.33 760 75.33C767.89 75.33 776.15 78.81 776.15 80C776.15 81.14 768.08 80 760 80C755 80 750 81.11 750 80" stroke="rgba(36, 36, 36, 0.7)" stroke-width="2"></path>
        <path d="M783.7 80C783.7 78.21 792.83 73.13 800 73.13C803.42 73.13 804.89 77.83 804.89 80C804.89 81.26 802.44 80 800 80C791.85 80 783.7 81.65 783.7 80" stroke="rgba(36, 36, 36, 0.7)" stroke-width="2"></path>
        <path d="M937.36 80C937.36 78.94 938.82 76.59 940 76.59C941.06 76.59 941.84 78.84 941.84 80C941.84 80.55 940.92 80 940 80C938.68 80 937.36 80.65 937.36 80" stroke="rgba(36, 36, 36, 0.7)" stroke-width="2"></path>
        <path d="M1156.13 80C1156.13 79.18 1157.74 77.88 1160 77.07C1169.67 73.63 1171.58 70.5 1180 71.5C1183.94 71.97 1184.72 77.14 1184.72 80C1184.72 81.39 1182.36 80 1180 80C1170 80 1170 80 1160 80C1158.07 80 1156.13 80.65 1156.13 80" stroke="rgba(36, 36, 36, 0.7)" stroke-width="2"></path>
        <path d="M1320 80C1320 79.87 1330.16 79.47 1340 79.47C1340.29 79.47 1340.26 79.82 1340.26 80C1340.26 80.08 1340.13 80 1340 80C1330 80 1320 80.13 1320 80" stroke="rgba(36, 36, 36, 0.7)" stroke-width="2"></path>
        <path d="M1377.44 80C1377.44 79.24 1378.32 77.41 1380 77.41C1386.47 77.41 1393.75 79.35 1393.75 80C1393.75 80.64 1386.88 80 1380 80C1378.72 80 1377.44 80.53 1377.44 80" stroke="rgba(36, 36, 36, 0.7)" stroke-width="2"></path>
        <path d="M1473.95 80C1473.95 74.61 1476.48 65.16 1480 65.16C1483.76 65.16 1488.52 75.05 1488.52 80C1488.52 82.47 1484.26 80 1480 80C1476.97 80 1473.95 82.03 1473.95 80" stroke="rgba(36, 36, 36, 0.7)" stroke-width="2"></path>
    </g>
    <defs>
        <mask id="SvgjsMask1028">
            <rect width="1520" height="78" fill="#ffffff"></rect>
        </mask>
    </defs>
</svg>